REDTAiLS CAM  READNFO XViD - INSPiRAL

Name - REDTAiLS.CAM  READNFO XViD - INSPiRAL.avi

IMDB - http://www.imdb.com/title/tt0485985/

SOURCES:

VIDEO - Hos DVDR iso
AUDIO - Hos DVDR iso
SUBS  - None Add

Format                                   : AVI
Format/Info                              : Audio Video Interleave
File size                                : 831 MiB
Duration                                 : 1h 57mn
Overall bit rate                         : 986 Kbps
Writing library                          : VirtualDub build 32842/release

Video
ID                                       : 0
Format                                   : MPEG-4 Visual
Format profile                           : Advanced Simple@L5
Format settings, BVOP                    : 2
Format settings, QPel                    : No
Format settings, GMC                     : No warppoints
Format settings, Matrix                  : Default (H.263)
Muxing mode                              : Packed bitstream
Codec ID                                 : XVID
Codec ID/Hint                            : XviD
Duration                                 : 1h 57mn
Bit rate                                 : 848 Kbps
Width                                    : 720 pixels
Height                                   : 400 pixels
Display aspect ratio                     : 16:9
Frame rate                               : 25.000 fps
Color space                              : YUV
Chroma subsampling                       : 4:2:0
Bit depth                                : 8 bits
Scan type                                : Progressive
Compression mode                         : Lossy
Bits/(Pixel*Frame)                       : 0.118
Stream size                              : 715 MiB (86%)
Writing library                          : XviD 64

Audio
ID                                       : 1
Format                                   : MPEG Audio
Format version                           : Version 1
Format profile                           : Layer 3
Codec ID                                 : 55
Codec ID/Hint                            : MP3
Duration                                 : 1h 57mn
Bit rate mode                            : Constant
Bit rate                                 : 128 Kbps
Channel(s)                               : 2 channels
Sampling rate                            : 48.0 KHz
Compression mode                         : Lossy
Stream size                              : 108 MiB (13%)
Alignment                                : Split accross interleaves
Interleave, duration                     : 40 ms (1.00 video frame)
Interleave, preload duration             : 500 ms

Notes - 

Thanks to an old friend for the silver  There was quite a bit to do on this as there was a large amount of movement, cropped, resized, filtered to make it smoother, but still a cam, nice find, take it or leave it as always.
Note to site staff: Stop editing our nfos :p  your nfo Gods, your site staff :p 
We are only trying to point out to a few select encoders they need to stop with
silly links,blogs,emails.

Be safe - 


Poster:

 
http://i.imgur.com/Jc8xI.jpg


Screens:

 
http://i.imgur.com/FWH5C.png

 
http://i.imgur.com/IW83V.png

 
http://i.imgur.com/cQSIg.png


ENJOY!